<?xml version="1.0" encoding="utf-8" standalone="no"?>
<!DOCTYPE svg PUBLIC "-//W3C//DTD SVG 1.1//EN"
  "http://www.w3.org/Graphics/SVG/1.1/DTD/svg11.dtd">
<svg height="403.7736pt" version="1.1" viewBox="0 0 498.265997 403.7736" width="498.265997pt" xmlns="http://www.w3.org/2000/svg" xmlns:xlink="http://www.w3.org/1999/xlink">
 <metadata>
  <rdf:RDF xmlns:cc="http://creativecommons.org/ns#" xmlns:dc="http://purl.org/dc/elements/1.1/" xmlns:rdf="http://www.w3.org/1999/02/22-rdf-syntax-ns#">
   <cc:Work>
    <dc:type rdf:resource="http://purl.org/dc/dcmitype/StillImage"/>
    <dc:date>2021-06-08T16:03:00.845709</dc:date>
    <dc:format>image/svg+xml</dc:format>
    <dc:creator>
     <cc:Agent>
      <dc:title>Matplotlib v3.4.2, https://matplotlib.org/</dc:title>
     </cc:Agent>
    </dc:creator>
   </cc:Work>
  </rdf:RDF>
 </metadata>
 <defs>
  <style type="text/css">*{stroke-linecap:butt;stroke-linejoin:round;}</style>
 </defs>
 <g id="figure_1">
  <g id="patch_1">
   <path d="M 0 403.7736 
L 498.265997 403.7736 
L 498.265997 0 
L 0 0 
z
" style="fill:none;"/>
  </g>
  <g id="axes_1">
   <g id="patch_2">
    <path clip-path="url(#pa04087a7dc)" d="M 361.738337 358.215665 
L 373.790377 358.215665 
L 367.764357 366.90704 
z
" style="fill:#656565;"/>
   </g>
   <g id="patch_3">
    <path clip-path="url(#pa04087a7dc)" d="M 408.092337 358.215665 
L 420.144377 358.215665 
L 414.118357 366.90704 
z
" style="fill:#656565;"/>
   </g>
   <g id="patch_4">
    <path clip-path="url(#pa04087a7dc)" d="M 454.446337 358.215665 
L 466.498377 358.215665 
L 460.472357 366.90704 
z
" style="fill:#656565;"/>
   </g>
   <g id="line2d_1">
    <path clip-path="url(#pa04087a7dc)" d="M 64.609197 44.2832 
L 486.430597 44.2832 
" style="fill:none;stroke:#656565;stroke-linecap:square;stroke-width:1.4;"/>
   </g>
   <g id="line2d_2">
    <path clip-path="url(#pa04087a7dc)" d="M 64.609197 90.6372 
L 486.430597 90.6372 
" style="fill:none;stroke:#656565;stroke-linecap:square;stroke-width:1.4;"/>
   </g>
   <g id="line2d_3">
    <path clip-path="url(#pa04087a7dc)" d="M 64.609197 136.9912 
L 486.430597 136.9912 
" style="fill:none;stroke:#656565;stroke-linecap:square;stroke-width:1.4;"/>
   </g>
   <g id="line2d_4">
    <path clip-path="url(#pa04087a7dc)" d="M 64.609197 183.3452 
L 486.430597 183.3452 
" style="fill:none;stroke:#656565;stroke-linecap:square;stroke-width:1.4;"/>
   </g>
   <g id="line2d_5">
    <path clip-path="url(#pa04087a7dc)" d="M 64.609197 229.6992 
L 486.430597 229.6992 
" style="fill:none;stroke:#656565;stroke-linecap:square;stroke-width:1.4;"/>
   </g>
   <g id="line2d_6">
    <path clip-path="url(#pa04087a7dc)" d="M 64.609197 276.0532 
L 486.430597 276.0532 
" style="fill:none;stroke:#656565;stroke-linecap:square;stroke-width:1.4;"/>
   </g>
   <g id="line2d_7">
    <path clip-path="url(#pa04087a7dc)" d="M 64.609197 322.4072 
L 486.430597 322.4072 
" style="fill:none;stroke:#656565;stroke-linecap:square;stroke-width:1.4;"/>
   </g>
   <g id="line2d_8">
    <path clip-path="url(#pa04087a7dc)" d="M 64.609197 367.254695 
L 486.430597 367.254695 
" style="fill:none;stroke:#656565;stroke-linecap:square;stroke-width:1.4;"/>
   </g>
   <g id="line2d_9">
    <path clip-path="url(#pa04087a7dc)" d="M 64.609197 370.267705 
L 486.430597 370.267705 
" style="fill:none;stroke:#656565;stroke-linecap:square;stroke-width:1.4;"/>
   </g>
   <g id="line2d_10">
    <path clip-path="url(#pa04087a7dc)" d="M 89.640357 183.3452 
L 89.640357 136.9912 
" style="fill:none;stroke:#656565;stroke-linecap:square;stroke-width:1.4;"/>
   </g>
   <g id="line2d_11">
    <path clip-path="url(#pa04087a7dc)" d="M 135.994357 90.6372 
L 135.994357 44.2832 
" style="fill:none;stroke:#656565;stroke-linecap:square;stroke-width:1.4;"/>
   </g>
   <g id="line2d_12">
    <path clip-path="url(#pa04087a7dc)" d="M 182.348357 229.6992 
L 182.348357 90.6372 
" style="fill:none;stroke:#656565;stroke-linecap:square;stroke-width:1.4;"/>
   </g>
   <g id="line2d_13">
    <path clip-path="url(#pa04087a7dc)" d="M 275.056357 276.0532 
L 275.056357 44.2832 
" style="fill:none;stroke:#656565;stroke-linecap:square;stroke-width:1.4;"/>
   </g>
   <g id="line2d_14">
    <path clip-path="url(#pa04087a7dc)" d="M 321.410357 322.4072 
L 321.410357 229.6992 
" style="fill:none;stroke:#656565;stroke-linecap:square;stroke-width:1.4;"/>
   </g>
   <g id="line2d_15">
    <path clip-path="url(#pa04087a7dc)" d="M 369.270862 322.4072 
L 369.270862 358.215665 
" style="fill:none;stroke:#656565;stroke-linecap:square;stroke-width:1.4;"/>
   </g>
   <g id="line2d_16">
    <path clip-path="url(#pa04087a7dc)" d="M 366.257852 322.4072 
L 366.257852 358.215665 
" style="fill:none;stroke:#656565;stroke-linecap:square;stroke-width:1.4;"/>
   </g>
   <g id="line2d_17">
    <path clip-path="url(#pa04087a7dc)" d="M 415.624862 44.2832 
L 415.624862 358.215665 
" style="fill:none;stroke:#656565;stroke-linecap:square;stroke-width:1.4;"/>
   </g>
   <g id="line2d_18">
    <path clip-path="url(#pa04087a7dc)" d="M 412.611852 44.2832 
L 412.611852 358.215665 
" style="fill:none;stroke:#656565;stroke-linecap:square;stroke-width:1.4;"/>
   </g>
   <g id="line2d_19">
    <path clip-path="url(#pa04087a7dc)" d="M 461.978862 136.9912 
L 461.978862 358.215665 
" style="fill:none;stroke:#656565;stroke-linecap:square;stroke-width:1.4;"/>
   </g>
   <g id="line2d_20">
    <path clip-path="url(#pa04087a7dc)" d="M 458.965852 136.9912 
L 458.965852 358.215665 
" style="fill:none;stroke:#656565;stroke-linecap:square;stroke-width:1.4;"/>
   </g>
   <g id="line2d_21">
    <path clip-path="url(#pa04087a7dc)" d="M 73.879997 373.3966 
L 78.515397 364.1258 
" style="fill:none;stroke:#656565;stroke-linecap:square;stroke-width:1.5;"/>
   </g>
   <g id="patch_5">
    <path clip-path="url(#pa04087a7dc)" d="M 79.210707 59.34825 
L 100.070007 59.34825 
Q 104.705407 59.34825 104.705407 54.71285 
L 104.705407 33.85355 
Q 104.705407 29.21815 100.070007 29.21815 
L 79.210707 29.21815 
Q 74.575307 29.21815 74.575307 33.85355 
L 74.575307 54.71285 
Q 74.575307 59.34825 79.210707 59.34825 
z
" style="fill:#1d1d1d;stroke:#656565;stroke-linejoin:miter;stroke-width:1.05;"/>
   </g>
   <g id="patch_6">
    <path clip-path="url(#pa04087a7dc)" d="M 89.640357 141.510715 
C 90.838947 141.510715 91.988606 141.03451 92.836137 140.18698 
C 93.683668 139.339449 94.159872 138.189789 94.159872 136.9912 
C 94.159872 135.792611 93.683668 134.642951 92.836137 133.79542 
C 91.988606 132.94789 90.838947 132.471685 89.640357 132.471685 
C 88.441768 132.471685 87.292108 132.94789 86.444578 133.79542 
C 85.597047 134.642951 85.120842 135.792611 85.120842 136.9912 
C 85.120842 138.189789 85.597047 139.339449 86.444578 140.18698 
C 87.292108 141.03451 88.441768 141.510715 89.640357 141.510715 
z
" style="fill:#656565;stroke:#656565;stroke-linejoin:miter;stroke-width:1.05;"/>
   </g>
   <g id="patch_7">
    <path clip-path="url(#pa04087a7dc)" d="M 89.640357 193.890735 
C 92.437066 193.890735 95.119605 192.779591 97.097177 190.802019 
C 99.074748 188.824448 100.185892 186.141909 100.185892 183.3452 
C 100.185892 180.548491 99.074748 177.865952 97.097177 175.888381 
C 95.119605 173.910809 92.437066 172.799665 89.640357 172.799665 
C 86.843649 172.799665 84.16111 173.910809 82.183538 175.888381 
C 80.205966 177.865952 79.094822 180.548491 79.094822 183.3452 
C 79.094822 186.141909 80.205966 188.824448 82.183538 190.802019 
C 84.16111 192.779591 86.843649 193.890735 89.640357 193.890735 
z
" style="fill:#656565;stroke:#656565;stroke-linejoin:miter;stroke-width:1.4;"/>
   </g>
   <g id="patch_8">
    <path clip-path="url(#pa04087a7dc)" d="M 79.210707 244.76425 
L 100.070007 244.76425 
Q 104.705407 244.76425 104.705407 240.12885 
L 104.705407 219.26955 
Q 104.705407 214.63415 100.070007 214.63415 
L 79.210707 214.63415 
Q 74.575307 214.63415 74.575307 219.26955 
L 74.575307 240.12885 
Q 74.575307 244.76425 79.210707 244.76425 
z
" style="fill:#1d1d1d;stroke:#656565;stroke-linejoin:miter;stroke-width:1.05;"/>
   </g>
   <g id="patch_9">
    <path clip-path="url(#pa04087a7dc)" d="M 79.210707 291.11825 
L 100.070007 291.11825 
Q 104.705407 291.11825 104.705407 286.48285 
L 104.705407 265.62355 
Q 104.705407 260.98815 100.070007 260.98815 
L 79.210707 260.98815 
Q 74.575307 260.98815 74.575307 265.62355 
L 74.575307 286.48285 
Q 74.575307 291.11825 79.210707 291.11825 
z
" style="fill:#1d1d1d;stroke:#656565;stroke-linejoin:miter;stroke-width:1.05;"/>
   </g>
   <g id="patch_10">
    <path clip-path="url(#pa04087a7dc)" d="M 135.994357 48.802715 
C 137.192947 48.802715 138.342606 48.32651 139.190137 47.47898 
C 140.037668 46.631449 140.513872 45.481789 140.513872 44.2832 
C 140.513872 43.084611 140.037668 41.934951 139.190137 41.08742 
C 138.342606 40.23989 137.192947 39.763685 135.994357 39.763685 
C 134.795768 39.763685 133.646108 40.23989 132.798578 41.08742 
C 131.951047 41.934951 131.474842 43.084611 131.474842 44.2832 
C 131.474842 45.481789 131.951047 46.631449 132.798578 47.47898 
C 133.646108 48.32651 134.795768 48.802715 135.994357 48.802715 
z
" style="fill:#656565;stroke:#656565;stroke-linejoin:miter;stroke-width:1.05;"/>
   </g>
   <g id="patch_11">
    <path clip-path="url(#pa04087a7dc)" d="M 135.994357 101.182735 
C 138.791066 101.182735 141.473605 100.071591 143.451177 98.094019 
C 145.428748 96.116448 146.539892 93.433909 146.539892 90.6372 
C 146.539892 87.840491 145.428748 85.157952 143.451177 83.180381 
C 141.473605 81.202809 138.791066 80.091665 135.994357 80.091665 
C 133.197649 80.091665 130.51511 81.202809 128.537538 83.180381 
C 126.559966 85.157952 125.448822 87.840491 125.448822 90.6372 
C 125.448822 93.433909 126.559966 96.116448 128.537538 98.094019 
C 130.51511 100.071591 133.197649 101.182735 135.994357 101.182735 
z
" style="fill:#656565;stroke:#656565;stroke-linejoin:miter;stroke-width:1.4;"/>
   </g>
   <g id="patch_12">
    <path clip-path="url(#pa04087a7dc)" d="M 125.564707 152.05625 
L 146.424007 152.05625 
Q 151.059407 152.05625 151.059407 147.42085 
L 151.059407 126.56155 
Q 151.059407 121.92615 146.424007 121.92615 
L 125.564707 121.92615 
Q 120.929307 121.92615 120.929307 126.56155 
L 120.929307 147.42085 
Q 120.929307 152.05625 125.564707 152.05625 
z
" style="fill:#1d1d1d;stroke:#656565;stroke-linejoin:miter;stroke-width:1.05;"/>
   </g>
   <g id="patch_13">
    <path clip-path="url(#pa04087a7dc)" d="M 171.918707 59.34825 
L 192.778007 59.34825 
Q 197.413407 59.34825 197.413407 54.71285 
L 197.413407 33.85355 
Q 197.413407 29.21815 192.778007 29.21815 
L 171.918707 29.21815 
Q 167.283307 29.21815 167.283307 33.85355 
L 167.283307 54.71285 
Q 167.283307 59.34825 171.918707 59.34825 
z
" style="fill:#1d1d1d;stroke:#656565;stroke-linejoin:miter;stroke-width:1.05;"/>
   </g>
   <g id="patch_14">
    <path clip-path="url(#pa04087a7dc)" d="M 182.348357 95.156715 
C 183.546947 95.156715 184.696606 94.68051 185.544137 93.83298 
C 186.391668 92.985449 186.867872 91.835789 186.867872 90.6372 
C 186.867872 89.438611 186.391668 88.288951 185.544137 87.44142 
C 184.696606 86.59389 183.546947 86.117685 182.348357 86.117685 
C 181.149768 86.117685 180.000108 86.59389 179.152578 87.44142 
C 178.305047 88.288951 177.828842 89.438611 177.828842 90.6372 
C 177.828842 91.835789 178.305047 92.985449 179.152578 93.83298 
C 180.000108 94.68051 181.149768 95.156715 182.348357 95.156715 
z
" style="fill:#656565;stroke:#656565;stroke-linejoin:miter;stroke-width:1.05;"/>
   </g>
   <g id="patch_15">
    <path clip-path="url(#pa04087a7dc)" d="M 182.348357 187.864715 
C 183.546947 187.864715 184.696606 187.38851 185.544137 186.54098 
C 186.391668 185.693449 186.867872 184.543789 186.867872 183.3452 
C 186.867872 182.146611 186.391668 180.996951 185.544137 180.14942 
C 184.696606 179.30189 183.546947 178.825685 182.348357 178.825685 
C 181.149768 178.825685 180.000108 179.30189 179.152578 180.14942 
C 178.305047 180.996951 177.828842 182.146611 177.828842 183.3452 
C 177.828842 184.543789 178.305047 185.693449 179.152578 186.54098 
C 180.000108 187.38851 181.149768 187.864715 182.348357 187.864715 
z
" style="fill:#656565;stroke:#656565;stroke-linejoin:miter;stroke-width:1.05;"/>
   </g>
   <g id="patch_16">
    <path clip-path="url(#pa04087a7dc)" d="M 182.348357 240.244735 
C 185.145066 240.244735 187.827605 239.133591 189.805177 237.156019 
C 191.782748 235.178448 192.893892 232.495909 192.893892 229.6992 
C 192.893892 226.902491 191.782748 224.219952 189.805177 222.242381 
C 187.827605 220.264809 185.145066 219.153665 182.348357 219.153665 
C 179.551649 219.153665 176.86911 220.264809 174.891538 222.242381 
C 172.913966 224.219952 171.802822 226.902491 171.802822 229.6992 
C 171.802822 232.495909 172.913966 235.178448 174.891538 237.156019 
C 176.86911 239.133591 179.551649 240.244735 182.348357 240.244735 
z
" style="fill:#656565;stroke:#656565;stroke-linejoin:miter;stroke-width:1.4;"/>
   </g>
   <g id="patch_17">
    <path clip-path="url(#pa04087a7dc)" d="M 218.272707 105.70225 
L 239.132007 105.70225 
Q 243.767407 105.70225 243.767407 101.06685 
L 243.767407 80.20755 
Q 243.767407 75.57215 239.132007 75.57215 
L 218.272707 75.57215 
Q 213.637307 75.57215 213.637307 80.20755 
L 213.637307 101.06685 
Q 213.637307 105.70225 218.272707 105.70225 
z
" style="fill:#1d1d1d;stroke:#656565;stroke-linejoin:miter;stroke-width:1.05;"/>
   </g>
   <g id="patch_18">
    <path clip-path="url(#pa04087a7dc)" d="M 218.272707 198.41025 
L 239.132007 198.41025 
Q 243.767407 198.41025 243.767407 193.77485 
L 243.767407 172.91555 
Q 243.767407 168.28015 239.132007 168.28015 
L 218.272707 168.28015 
Q 213.637307 168.28015 213.637307 172.91555 
L 213.637307 193.77485 
Q 213.637307 198.41025 218.272707 198.41025 
z
" style="fill:#1d1d1d;stroke:#656565;stroke-linejoin:miter;stroke-width:1.05;"/>
   </g>
   <g id="patch_19">
    <path clip-path="url(#pa04087a7dc)" d="M 275.056357 48.802715 
C 276.254947 48.802715 277.404606 48.32651 278.252137 47.47898 
C 279.099668 46.631449 279.575872 45.481789 279.575872 44.2832 
C 279.575872 43.084611 279.099668 41.934951 278.252137 41.08742 
C 277.404606 40.23989 276.254947 39.763685 275.056357 39.763685 
C 273.857768 39.763685 272.708108 40.23989 271.860578 41.08742 
C 271.013047 41.934951 270.536842 43.084611 270.536842 44.2832 
C 270.536842 45.481789 271.013047 46.631449 271.860578 47.47898 
C 272.708108 48.32651 273.857768 48.802715 275.056357 48.802715 
z
" style="fill:#656565;stroke:#656565;stroke-linejoin:miter;stroke-width:1.05;"/>
   </g>
   <g id="patch_20">
    <path clip-path="url(#pa04087a7dc)" d="M 275.056357 141.510715 
C 276.254947 141.510715 277.404606 141.03451 278.252137 140.18698 
C 279.099668 139.339449 279.575872 138.189789 279.575872 136.9912 
C 279.575872 135.792611 279.099668 134.642951 278.252137 133.79542 
C 277.404606 132.94789 276.254947 132.471685 275.056357 132.471685 
C 273.857768 132.471685 272.708108 132.94789 271.860578 133.79542 
C 271.013047 134.642951 270.536842 135.792611 270.536842 136.9912 
C 270.536842 138.189789 271.013047 139.339449 271.860578 140.18698 
C 272.708108 141.03451 273.857768 141.510715 275.056357 141.510715 
z
" style="fill:#656565;stroke:#656565;stroke-linejoin:miter;stroke-width:1.05;"/>
   </g>
   <g id="patch_21">
    <path clip-path="url(#pa04087a7dc)" d="M 275.056357 286.598735 
C 277.853066 286.598735 280.535605 285.487591 282.513177 283.510019 
C 284.490748 281.532448 285.601892 278.849909 285.601892 276.0532 
C 285.601892 273.256491 284.490748 270.573952 282.513177 268.596381 
C 280.535605 266.618809 277.853066 265.507665 275.056357 265.507665 
C 272.259649 265.507665 269.57711 266.618809 267.599538 268.596381 
C 265.621966 270.573952 264.510822 273.256491 264.510822 276.0532 
C 264.510822 278.849909 265.621966 281.532448 267.599538 283.510019 
C 269.57711 285.487591 272.259649 286.598735 275.056357 286.598735 
z
" style="fill:#656565;stroke:#656565;stroke-linejoin:miter;stroke-width:1.4;"/>
   </g>
   <g id="patch_22">
    <path clip-path="url(#pa04087a7dc)" d="M 310.980707 59.34825 
L 331.840007 59.34825 
Q 336.475407 59.34825 336.475407 54.71285 
L 336.475407 33.85355 
Q 336.475407 29.21815 331.840007 29.21815 
L 310.980707 29.21815 
Q 306.345307 29.21815 306.345307 33.85355 
L 306.345307 54.71285 
Q 306.345307 59.34825 310.980707 59.34825 
z
" style="fill:#1d1d1d;stroke:#656565;stroke-linejoin:miter;stroke-width:1.05;"/>
   </g>
   <g id="patch_23">
    <path clip-path="url(#pa04087a7dc)" d="M 310.980707 152.05625 
L 331.840007 152.05625 
Q 336.475407 152.05625 336.475407 147.42085 
L 336.475407 126.56155 
Q 336.475407 121.92615 331.840007 121.92615 
L 310.980707 121.92615 
Q 306.345307 121.92615 306.345307 126.56155 
L 306.345307 147.42085 
Q 306.345307 152.05625 310.980707 152.05625 
z
" style="fill:#1d1d1d;stroke:#656565;stroke-linejoin:miter;stroke-width:1.05;"/>
   </g>
   <g id="patch_24">
    <path clip-path="url(#pa04087a7dc)" d="M 321.410357 234.218715 
C 322.608947 234.218715 323.758606 233.74251 324.606137 232.89498 
C 325.453668 232.047449 325.929872 230.897789 325.929872 229.6992 
C 325.929872 228.500611 325.453668 227.350951 324.606137 226.50342 
C 323.758606 225.65589 322.608947 225.179685 321.410357 225.179685 
C 320.211768 225.179685 319.062108 225.65589 318.214578 226.50342 
C 317.367047 227.350951 316.890842 228.500611 316.890842 229.6992 
C 316.890842 230.897789 317.367047 232.047449 318.214578 232.89498 
C 319.062108 233.74251 320.211768 234.218715 321.410357 234.218715 
z
" style="fill:#656565;stroke:#656565;stroke-linejoin:miter;stroke-width:1.05;"/>
   </g>
   <g id="patch_25">
    <path clip-path="url(#pa04087a7dc)" d="M 321.410357 280.572715 
C 322.608947 280.572715 323.758606 280.09651 324.606137 279.24898 
C 325.453668 278.401449 325.929872 277.251789 325.929872 276.0532 
C 325.929872 274.854611 325.453668 273.704951 324.606137 272.85742 
C 323.758606 272.00989 322.608947 271.533685 321.410357 271.533685 
C 320.211768 271.533685 319.062108 272.00989 318.214578 272.85742 
C 317.367047 273.704951 316.890842 274.854611 316.890842 276.0532 
C 316.890842 277.251789 317.367047 278.401449 318.214578 279.24898 
C 319.062108 280.09651 320.211768 280.572715 321.410357 280.572715 
z
" style="fill:#656565;stroke:#656565;stroke-linejoin:miter;stroke-width:1.05;"/>
   </g>
   <g id="patch_26">
    <path clip-path="url(#pa04087a7dc)" d="M 321.410357 332.952735 
C 324.207066 332.952735 326.889605 331.841591 328.867177 329.864019 
C 330.844748 327.886448 331.955892 325.203909 331.955892 322.4072 
C 331.955892 319.610491 330.844748 316.927952 328.867177 314.950381 
C 326.889605 312.972809 324.207066 311.861665 321.410357 311.861665 
C 318.613649 311.861665 315.93111 312.972809 313.953538 314.950381 
C 311.975966 316.927952 310.864822 319.610491 310.864822 322.4072 
C 310.864822 325.203909 311.975966 327.886448 313.953538 329.864019 
C 315.93111 331.841591 318.613649 332.952735 321.410357 332.952735 
z
" style="fill:#656565;stroke:#656565;stroke-linejoin:miter;stroke-width:1.4;"/>
   </g>
   <g id="patch_27">
    <path clip-path="url(#pa04087a7dc)" d="M 357.334707 337.47225 
L 378.194007 337.47225 
Q 382.829407 337.47225 382.829407 332.83685 
L 382.829407 311.97755 
Q 382.829407 307.34215 378.194007 307.34215 
L 357.334707 307.34215 
Q 352.699307 307.34215 352.699307 311.97755 
L 352.699307 332.83685 
Q 352.699307 337.47225 357.334707 337.47225 
z
" style="fill:#1d1d1d;stroke:#656565;stroke-linejoin:miter;stroke-width:1.05;"/>
   </g>
   <g id="patch_28">
    <path clip-path="url(#pa04087a7dc)" d="M 378.309892 326.926715 
C 378.309892 324.130938 377.19809 321.446809 375.221177 319.469896 
C 373.244264 317.492983 370.560134 316.38118 367.764357 316.38118 
C 364.96858 316.38118 362.284451 317.492983 360.307538 319.469896 
C 358.330625 321.446809 357.218822 324.130938 357.218822 326.926715 
" style="fill:none;stroke:#d00e7b;stroke-linejoin:miter;stroke-width:1.4;"/>
   </g>
   <g id="patch_29">
    <path clip-path="url(#pa04087a7dc)" d="M 403.688707 59.34825 
L 424.548007 59.34825 
Q 429.183407 59.34825 429.183407 54.71285 
L 429.183407 33.85355 
Q 429.183407 29.21815 424.548007 29.21815 
L 403.688707 29.21815 
Q 399.053307 29.21815 399.053307 33.85355 
L 399.053307 54.71285 
Q 399.053307 59.34825 403.688707 59.34825 
z
" style="fill:#1d1d1d;stroke:#656565;stroke-linejoin:miter;stroke-width:1.05;"/>
   </g>
   <g id="patch_30">
    <path clip-path="url(#pa04087a7dc)" d="M 424.663892 48.802715 
C 424.663892 46.006938 423.55209 43.322809 421.575177 41.345896 
C 419.598264 39.368983 416.914134 38.25718 414.118357 38.25718 
C 411.32258 38.25718 408.638451 39.368983 406.661538 41.345896 
C 404.684625 43.322809 403.572822 46.006938 403.572822 48.802715 
" style="fill:none;stroke:#d00e7b;stroke-linejoin:miter;stroke-width:1.4;"/>
   </g>
   <g id="patch_31">
    <path clip-path="url(#pa04087a7dc)" d="M 450.042707 152.05625 
L 470.902007 152.05625 
Q 475.537407 152.05625 475.537407 147.42085 
L 475.537407 126.56155 
Q 475.537407 121.92615 470.902007 121.92615 
L 450.042707 121.92615 
Q 445.407307 121.92615 445.407307 126.56155 
L 445.407307 147.42085 
Q 445.407307 152.05625 450.042707 152.05625 
z
" style="fill:#1d1d1d;stroke:#656565;stroke-linejoin:miter;stroke-width:1.05;"/>
   </g>
   <g id="patch_32">
    <path clip-path="url(#pa04087a7dc)" d="M 471.017892 141.510715 
C 471.017892 138.714938 469.90609 136.030809 467.929177 134.053896 
C 465.952264 132.076983 463.268134 130.96518 460.472357 130.96518 
C 457.67658 130.96518 454.992451 132.076983 453.015538 134.053896 
C 451.038625 136.030809 449.926822 138.714938 449.926822 141.510715 
" style="fill:none;stroke:#d00e7b;stroke-linejoin:miter;stroke-width:1.4;"/>
   </g>
   <g id="line2d_22">
    <path clip-path="url(#pa04087a7dc)" d="M 367.764357 326.926715 
L 378.309892 316.38118 
" style="fill:none;stroke:#d00e7b;stroke-linecap:square;stroke-width:1.4;"/>
   </g>
   <g id="line2d_23">
    <path clip-path="url(#pa04087a7dc)" d="M 414.118357 48.802715 
L 424.663892 38.25718 
" style="fill:none;stroke:#d00e7b;stroke-linecap:square;stroke-width:1.4;"/>
   </g>
   <g id="line2d_24">
    <path clip-path="url(#pa04087a7dc)" d="M 460.472357 141.510715 
L 471.017892 130.96518 
" style="fill:none;stroke:#d00e7b;stroke-linecap:square;stroke-width:1.4;"/>
   </g>
   <g id="line2d_25">
    <path clip-path="url(#pa04087a7dc)" d="M 89.640357 189.37122 
L 89.640357 177.31918 
" style="fill:none;stroke:#ffffff;stroke-linecap:square;stroke-width:1.4;"/>
   </g>
   <g id="line2d_26">
    <path clip-path="url(#pa04087a7dc)" d="M 83.614337 183.3452 
L 95.666377 183.3452 
" style="fill:none;stroke:#ffffff;stroke-linecap:square;stroke-width:1.4;"/>
   </g>
   <g id="line2d_27">
    <path clip-path="url(#pa04087a7dc)" d="M 135.994357 96.66322 
L 135.994357 84.61118 
" style="fill:none;stroke:#ffffff;stroke-linecap:square;stroke-width:1.4;"/>
   </g>
   <g id="line2d_28">
    <path clip-path="url(#pa04087a7dc)" d="M 129.968337 90.6372 
L 142.020377 90.6372 
" style="fill:none;stroke:#ffffff;stroke-linecap:square;stroke-width:1.4;"/>
   </g>
   <g id="line2d_29">
    <path clip-path="url(#pa04087a7dc)" d="M 182.348357 235.72522 
L 182.348357 223.67318 
" style="fill:none;stroke:#ffffff;stroke-linecap:square;stroke-width:1.4;"/>
   </g>
   <g id="line2d_30">
    <path clip-path="url(#pa04087a7dc)" d="M 176.322337 229.6992 
L 188.374377 229.6992 
" style="fill:none;stroke:#ffffff;stroke-linecap:square;stroke-width:1.4;"/>
   </g>
   <g id="line2d_31">
    <path clip-path="url(#pa04087a7dc)" d="M 275.056357 282.07922 
L 275.056357 270.02718 
" style="fill:none;stroke:#ffffff;stroke-linecap:square;stroke-width:1.4;"/>
   </g>
   <g id="line2d_32">
    <path clip-path="url(#pa04087a7dc)" d="M 269.030337 276.0532 
L 281.082377 276.0532 
" style="fill:none;stroke:#ffffff;stroke-linecap:square;stroke-width:1.4;"/>
   </g>
   <g id="line2d_33">
    <path clip-path="url(#pa04087a7dc)" d="M 321.410357 328.43322 
L 321.410357 316.38118 
" style="fill:none;stroke:#ffffff;stroke-linecap:square;stroke-width:1.4;"/>
   </g>
   <g id="line2d_34">
    <path clip-path="url(#pa04087a7dc)" d="M 315.384337 322.4072 
L 327.436377 322.4072 
" style="fill:none;stroke:#ffffff;stroke-linecap:square;stroke-width:1.4;"/>
   </g>
   <g id="text_1">
    <g clip-path="url(#pa04087a7dc)">
     <!-- X -->
     <g style="fill:#2495d3;" transform="translate(85.187857 47.870388)scale(0.13 -0.13)">
      <defs>
       <path d="M 403 4666 
L 1081 4666 
L 2241 2931 
L 3406 4666 
L 4084 4666 
L 2584 2425 
L 4184 0 
L 3506 0 
L 2194 1984 
L 872 0 
L 191 0 
L 1856 2491 
L 403 4666 
z
" id="DejaVuSans-58" transform="scale(0.015625)"/>
      </defs>
      <use xlink:href="#DejaVuSans-58"/>
     </g>
    </g>
   </g>
   <g id="text_2">
    <g clip-path="url(#pa04087a7dc)">
     <!-- X -->
     <g style="fill:#2495d3;" transform="translate(85.187857 233.286388)scale(0.13 -0.13)">
      <use xlink:href="#DejaVuSans-58"/>
     </g>
    </g>
   </g>
   <g id="text_3">
    <g clip-path="url(#pa04087a7dc)">
     <!-- X -->
     <g style="fill:#2495d3;" transform="translate(85.187857 279.640387)scale(0.13 -0.13)">
      <use xlink:href="#DejaVuSans-58"/>
     </g>
    </g>
   </g>
   <g id="text_4">
    <g clip-path="url(#pa04087a7dc)">
     <!-- X -->
     <g style="fill:#2495d3;" transform="translate(131.541857 140.578388)scale(0.13 -0.13)">
      <use xlink:href="#DejaVuSans-58"/>
     </g>
    </g>
   </g>
   <g id="text_5">
    <g clip-path="url(#pa04087a7dc)">
     <!-- X -->
     <g style="fill:#2495d3;" transform="translate(177.895857 47.870388)scale(0.13 -0.13)">
      <use xlink:href="#DejaVuSans-58"/>
     </g>
    </g>
   </g>
   <g id="text_6">
    <g clip-path="url(#pa04087a7dc)">
     <!-- X -->
     <g style="fill:#2495d3;" transform="translate(224.249857 94.224388)scale(0.13 -0.13)">
      <use xlink:href="#DejaVuSans-58"/>
     </g>
    </g>
   </g>
   <g id="text_7">
    <g clip-path="url(#pa04087a7dc)">
     <!-- X -->
     <g style="fill:#2495d3;" transform="translate(224.249857 186.932388)scale(0.13 -0.13)">
      <use xlink:href="#DejaVuSans-58"/>
     </g>
    </g>
   </g>
   <g id="text_8">
    <g clip-path="url(#pa04087a7dc)">
     <!-- X -->
     <g style="fill:#2495d3;" transform="translate(316.957857 47.870388)scale(0.13 -0.13)">
      <use xlink:href="#DejaVuSans-58"/>
     </g>
    </g>
   </g>
   <g id="text_9">
    <g clip-path="url(#pa04087a7dc)">
     <!-- X -->
     <g style="fill:#2495d3;" transform="translate(316.957857 140.578388)scale(0.13 -0.13)">
      <use xlink:href="#DejaVuSans-58"/>
     </g>
    </g>
   </g>
   <g id="text_10">
    <g clip-path="url(#pa04087a7dc)">
     <!-- 0 -->
     <g style="fill:#ffffff;" transform="translate(379.352857 361.962925)scale(0.104 -0.104)">
      <defs>
       <path d="M 2034 4250 
Q 1547 4250 1301 3770 
Q 1056 3291 1056 2328 
Q 1056 1369 1301 889 
Q 1547 409 2034 409 
Q 2525 409 2770 889 
Q 3016 1369 3016 2328 
Q 3016 3291 2770 3770 
Q 2525 4250 2034 4250 
z
M 2034 4750 
Q 2819 4750 3233 4129 
Q 3647 3509 3647 2328 
Q 3647 1150 3233 529 
Q 2819 -91 2034 -91 
Q 1250 -91 836 529 
Q 422 1150 422 2328 
Q 422 3509 836 4129 
Q 1250 4750 2034 4750 
z
" id="DejaVuSans-30" transform="scale(0.015625)"/>
      </defs>
      <use xlink:href="#DejaVuSans-30"/>
     </g>
    </g>
   </g>
   <g id="text_11">
    <g clip-path="url(#pa04087a7dc)">
     <!-- 1 -->
     <g style="fill:#ffffff;" transform="translate(425.706857 361.962925)scale(0.104 -0.104)">
      <defs>
       <path d="M 794 531 
L 1825 531 
L 1825 4091 
L 703 3866 
L 703 4441 
L 1819 4666 
L 2450 4666 
L 2450 531 
L 3481 531 
L 3481 0 
L 794 0 
L 794 531 
z
" id="DejaVuSans-31" transform="scale(0.015625)"/>
      </defs>
      <use xlink:href="#DejaVuSans-31"/>
     </g>
    </g>
   </g>
   <g id="text_12">
    <g clip-path="url(#pa04087a7dc)">
     <!-- 2 -->
     <g style="fill:#ffffff;" transform="translate(472.060857 361.962925)scale(0.104 -0.104)">
      <defs>
       <path d="M 1228 531 
L 3431 531 
L 3431 0 
L 469 0 
L 469 531 
Q 828 903 1448 1529 
Q 2069 2156 2228 2338 
Q 2531 2678 2651 2914 
Q 2772 3150 2772 3378 
Q 2772 3750 2511 3984 
Q 2250 4219 1831 4219 
Q 1534 4219 1204 4116 
Q 875 4013 500 3803 
L 500 4441 
Q 881 4594 1212 4672 
Q 1544 4750 1819 4750 
Q 2544 4750 2975 4387 
Q 3406 4025 3406 3419 
Q 3406 3131 3298 2873 
Q 3191 2616 2906 2266 
Q 2828 2175 2409 1742 
Q 1991 1309 1228 531 
z
" id="DejaVuSans-32" transform="scale(0.015625)"/>
      </defs>
      <use xlink:href="#DejaVuSans-32"/>
     </g>
    </g>
   </g>
   <g id="text_13">
    <g clip-path="url(#pa04087a7dc)">
     <!-- ${q}_{0}$ -->
     <g style="fill:#ffffff;" transform="translate(37.300897 48.734177)scale(0.1625 -0.1625)">
      <defs>
       <path d="M 2669 525 
Q 2438 222 2123 65 
Q 1809 -91 1428 -91 
Q 897 -91 595 267 
Q 294 625 294 1253 
Q 294 1759 480 2231 
Q 666 2703 1013 3078 
Q 1238 3322 1530 3453 
Q 1822 3584 2144 3584 
Q 2531 3584 2781 3431 
Q 3031 3278 3144 2969 
L 3244 3494 
L 3822 3494 
L 2888 -1319 
L 2309 -1319 
L 2669 525 
z
M 891 1338 
Q 891 875 1084 633 
Q 1278 391 1644 391 
Q 2188 391 2572 911 
Q 2956 1431 2956 2175 
Q 2956 2625 2757 2864 
Q 2559 3103 2188 3103 
Q 1916 3103 1684 2976 
Q 1453 2850 1281 2606 
Q 1100 2350 995 2006 
Q 891 1663 891 1338 
z
" id="DejaVuSans-Oblique-71" transform="scale(0.015625)"/>
      </defs>
      <use xlink:href="#DejaVuSans-Oblique-71"/>
      <use transform="translate(63.476562 -16.40625)scale(0.7)" xlink:href="#DejaVuSans-30"/>
     </g>
    </g>
   </g>
   <g id="text_14">
    <g clip-path="url(#pa04087a7dc)">
     <!-- ${q}_{1}$ -->
     <g style="fill:#ffffff;" transform="translate(37.300897 95.088177)scale(0.1625 -0.1625)">
      <use xlink:href="#DejaVuSans-Oblique-71"/>
      <use transform="translate(63.476562 -16.40625)scale(0.7)" xlink:href="#DejaVuSans-31"/>
     </g>
    </g>
   </g>
   <g id="text_15">
    <g clip-path="url(#pa04087a7dc)">
     <!-- ${q}_{2}$ -->
     <g style="fill:#ffffff;" transform="translate(37.300897 141.442177)scale(0.1625 -0.1625)">
      <use xlink:href="#DejaVuSans-Oblique-71"/>
      <use transform="translate(63.476562 -16.40625)scale(0.7)" xlink:href="#DejaVuSans-32"/>
     </g>
    </g>
   </g>
   <g id="text_16">
    <g clip-path="url(#pa04087a7dc)">
     <!-- ${q}_{3}$ -->
     <g style="fill:#ffffff;" transform="translate(37.300897 187.796177)scale(0.1625 -0.1625)">
      <defs>
       <path d="M 2597 2516 
Q 3050 2419 3304 2112 
Q 3559 1806 3559 1356 
Q 3559 666 3084 287 
Q 2609 -91 1734 -91 
Q 1441 -91 1130 -33 
Q 819 25 488 141 
L 488 750 
Q 750 597 1062 519 
Q 1375 441 1716 441 
Q 2309 441 2620 675 
Q 2931 909 2931 1356 
Q 2931 1769 2642 2001 
Q 2353 2234 1838 2234 
L 1294 2234 
L 1294 2753 
L 1863 2753 
Q 2328 2753 2575 2939 
Q 2822 3125 2822 3475 
Q 2822 3834 2567 4026 
Q 2313 4219 1838 4219 
Q 1578 4219 1281 4162 
Q 984 4106 628 3988 
L 628 4550 
Q 988 4650 1302 4700 
Q 1616 4750 1894 4750 
Q 2613 4750 3031 4423 
Q 3450 4097 3450 3541 
Q 3450 3153 3228 2886 
Q 3006 2619 2597 2516 
z
" id="DejaVuSans-33" transform="scale(0.015625)"/>
      </defs>
      <use xlink:href="#DejaVuSans-Oblique-71"/>
      <use transform="translate(63.476562 -16.40625)scale(0.7)" xlink:href="#DejaVuSans-33"/>
     </g>
    </g>
   </g>
   <g id="text_17">
    <g clip-path="url(#pa04087a7dc)">
     <!-- ${q}_{4}$ -->
     <g style="fill:#ffffff;" transform="translate(37.300897 234.150177)scale(0.1625 -0.1625)">
      <defs>
       <path d="M 2419 4116 
L 825 1625 
L 2419 1625 
L 2419 4116 
z
M 2253 4666 
L 3047 4666 
L 3047 1625 
L 3713 1625 
L 3713 1100 
L 3047 1100 
L 3047 0 
L 2419 0 
L 2419 1100 
L 313 1100 
L 313 1709 
L 2253 4666 
z
" id="DejaVuSans-34" transform="scale(0.015625)"/>
      </defs>
      <use xlink:href="#DejaVuSans-Oblique-71"/>
      <use transform="translate(63.476562 -16.40625)scale(0.7)" xlink:href="#DejaVuSans-34"/>
     </g>
    </g>
   </g>
   <g id="text_18">
    <g clip-path="url(#pa04087a7dc)">
     <!-- ${q}_{5}$ -->
     <g style="fill:#ffffff;" transform="translate(37.300897 280.504177)scale(0.1625 -0.1625)">
      <defs>
       <path d="M 691 4666 
L 3169 4666 
L 3169 4134 
L 1269 4134 
L 1269 2991 
Q 1406 3038 1543 3061 
Q 1681 3084 1819 3084 
Q 2600 3084 3056 2656 
Q 3513 2228 3513 1497 
Q 3513 744 3044 326 
Q 2575 -91 1722 -91 
Q 1428 -91 1123 -41 
Q 819 9 494 109 
L 494 744 
Q 775 591 1075 516 
Q 1375 441 1709 441 
Q 2250 441 2565 725 
Q 2881 1009 2881 1497 
Q 2881 1984 2565 2268 
Q 2250 2553 1709 2553 
Q 1456 2553 1204 2497 
Q 953 2441 691 2322 
L 691 4666 
z
" id="DejaVuSans-35" transform="scale(0.015625)"/>
      </defs>
      <use xlink:href="#DejaVuSans-Oblique-71"/>
      <use transform="translate(63.476562 -16.40625)scale(0.7)" xlink:href="#DejaVuSans-35"/>
     </g>
    </g>
   </g>
   <g id="text_19">
    <g clip-path="url(#pa04087a7dc)">
     <!-- ${q}_{6}$ -->
     <g style="fill:#ffffff;" transform="translate(37.300897 326.858177)scale(0.1625 -0.1625)">
      <defs>
       <path d="M 2113 2584 
Q 1688 2584 1439 2293 
Q 1191 2003 1191 1497 
Q 1191 994 1439 701 
Q 1688 409 2113 409 
Q 2538 409 2786 701 
Q 3034 994 3034 1497 
Q 3034 2003 2786 2293 
Q 2538 2584 2113 2584 
z
M 3366 4563 
L 3366 3988 
Q 3128 4100 2886 4159 
Q 2644 4219 2406 4219 
Q 1781 4219 1451 3797 
Q 1122 3375 1075 2522 
Q 1259 2794 1537 2939 
Q 1816 3084 2150 3084 
Q 2853 3084 3261 2657 
Q 3669 2231 3669 1497 
Q 3669 778 3244 343 
Q 2819 -91 2113 -91 
Q 1303 -91 875 529 
Q 447 1150 447 2328 
Q 447 3434 972 4092 
Q 1497 4750 2381 4750 
Q 2619 4750 2861 4703 
Q 3103 4656 3366 4563 
z
" id="DejaVuSans-36" transform="scale(0.015625)"/>
      </defs>
      <use xlink:href="#DejaVuSans-Oblique-71"/>
      <use transform="translate(63.476562 -16.40625)scale(0.7)" xlink:href="#DejaVuSans-36"/>
     </g>
    </g>
   </g>
   <g id="text_20">
    <g clip-path="url(#pa04087a7dc)">
     <!-- 3 -->
     <g style="fill:#ffffff;" transform="translate(69.244597 361.962925)scale(0.104 -0.104)">
      <use xlink:href="#DejaVuSans-33"/>
     </g>
    </g>
   </g>
   <g id="text_21">
    <g clip-path="url(#pa04087a7dc)">
     <!-- c -->
     <g style="fill:#ffffff;" transform="translate(46.403436 373.245184)scale(0.1625 -0.1625)">
      <defs>
       <path d="M 3122 3366 
L 3122 2828 
Q 2878 2963 2633 3030 
Q 2388 3097 2138 3097 
Q 1578 3097 1268 2742 
Q 959 2388 959 1747 
Q 959 1106 1268 751 
Q 1578 397 2138 397 
Q 2388 397 2633 464 
Q 2878 531 3122 666 
L 3122 134 
Q 2881 22 2623 -34 
Q 2366 -91 2075 -91 
Q 1284 -91 818 406 
Q 353 903 353 1747 
Q 353 2603 823 3093 
Q 1294 3584 2113 3584 
Q 2378 3584 2631 3529 
Q 2884 3475 3122 3366 
z
" id="DejaVuSans-63" transform="scale(0.015625)"/>
      </defs>
      <use xlink:href="#DejaVuSans-63"/>
     </g>
    </g>
   </g>
  </g>
 </g>
 <defs>
  <clipPath id="pa04087a7dc">
   <rect height="389.3736" width="483.865997" x="7.2" y="7.2"/>
  </clipPath>
 </defs>
</svg>
